<svg width="142" height="142" viewBox="0 0 142 142" fill="none" xmlns="http://www.w3.org/2000/svg">
<g id="Camera">
<path id="Rectangle 16 (Stroke)" fill-rule="evenodd" clip-rule="evenodd" d="M67.9764 40.0108C68.0566 40.0105 68.1377 40.0103 68.2196 40.01L77.5588 39.9766C77.6407 39.9763 77.7218 39.976 77.802 39.9756C79.037 39.9704 80.0735 39.966 81.0638 40.168C83.1289 40.5893 85.0022 41.6683 86.4036 43.2436C87.0756 43.999 87.5925 44.8982 88.2083 45.9695C88.2483 46.0391 88.2887 46.1094 88.3296 46.1804L89.6169 48.4163C90.7912 50.4557 92.9673 51.7092 95.3193 51.7008C102.285 51.6759 107.951 57.3063 107.976 64.2768L108.053 85.7979C108.063 88.5193 108.071 90.7449 107.93 92.5542C107.783 94.427 107.463 96.1191 106.665 97.7011C105.416 100.177 103.415 102.194 100.95 103.462C99.3747 104.272 97.6862 104.604 95.8159 104.764C94.0089 104.918 91.785 104.926 89.0656 104.936L57.1774 105.05C54.458 105.059 52.234 105.067 50.426 104.926C48.5546 104.78 46.8638 104.46 45.2829 103.661C42.8088 102.41 40.7938 100.408 39.5266 97.941C38.7169 96.3648 38.3848 94.675 38.2253 92.8033C38.0712 90.9951 38.0632 88.7694 38.0535 86.048L37.9766 64.5269C37.9517 57.5565 43.578 51.8857 50.5433 51.8608C52.8953 51.8524 55.0624 50.5834 56.222 48.5356L57.4934 46.2906C57.5337 46.2193 57.5736 46.1487 57.6131 46.0788C58.2213 45.0032 58.7318 44.1003 59.3983 43.3402C60.7884 41.7549 62.654 40.6625 64.7161 40.2264C65.7048 40.0173 66.7414 40.0143 67.9764 40.0108ZM68.2412 46.0721C66.6356 46.0778 66.2683 46.0942 65.9686 46.1576C65.1864 46.323 64.4788 46.7373 63.9515 47.3386C63.7495 47.5691 63.5553 47.8815 62.7636 49.2795L61.4923 51.5245C59.2609 55.4649 55.0908 57.9067 50.565 57.9229C46.9452 57.9358 44.0213 60.8829 44.0343 64.5053L44.1107 85.8994C44.121 88.7787 44.1305 90.7558 44.2611 92.2881C44.3887 93.785 44.6157 94.5885 44.9142 95.1696C45.5965 96.498 46.6815 97.576 48.0137 98.2493C48.5965 98.5439 49.401 98.7653 50.8977 98.8823C52.4297 99.0021 54.4054 98.9974 57.2826 98.9871L88.917 98.874C91.7942 98.8638 93.7698 98.8543 95.301 98.7236C96.7968 98.596 97.5997 98.3688 98.1804 98.0701C99.5077 97.3873 100.585 96.3014 101.258 94.9683C101.552 94.3851 101.773 93.5799 101.89 92.0822C102.01 90.549 102.005 88.5718 101.995 85.6925L101.919 64.2984C101.906 60.676 98.9607 57.7499 95.341 57.7629C90.8152 57.7791 86.6277 55.3671 84.3682 51.4428L83.0809 49.2069C82.2792 47.8146 82.0828 47.5035 81.8791 47.2746C81.3476 46.677 80.637 46.2678 79.8537 46.108C79.5535 46.0467 79.1861 46.033 77.5804 46.0387L68.2412 46.0721Z" fill="#636363"/>
<path id="Ellipse 26 (Stroke)" fill-rule="evenodd" clip-rule="evenodd" d="M72.4893 68.0559C66.7242 68.0765 62.0673 72.7667 62.0879 78.5319C62.1085 84.297 66.7988 88.9539 72.5639 88.9333C78.3291 88.9127 82.9859 84.2224 82.9653 78.4573C82.9447 72.6921 78.2545 68.0353 72.4893 68.0559ZM56.0267 78.5535C55.9942 69.4409 63.355 62.0273 72.4677 61.9947C81.5803 61.9621 88.994 69.323 89.0265 78.4356C89.0591 87.5483 81.6982 94.9619 72.5856 94.9945C63.473 95.027 56.0593 87.6662 56.0267 78.5535Z" fill="#636363"/>
<path id="Ellipse 26 (Stroke)_2" fill-rule="evenodd" clip-rule="evenodd" d="M88.982 65.9357C88.9721 63.1743 91.2027 60.9277 93.9641 60.9179C96.7255 60.908 98.972 63.1386 98.9819 65.9C98.9918 68.6614 96.7612 70.9079 93.9998 70.9178C91.2384 70.9277 88.9918 68.6971 88.982 65.9357Z" fill="#636363"/>
</g>
</svg>
