<svg width="156" height="144" viewBox="0 0 156 144" fill="none" xmlns="http://www.w3.org/2000/svg">
<path d="M41.0526 23.5526V45.3618H46.4408V27.6579L49.2632 30.2237V53.8289C49.2632 53.8289 47.0597 53.7783 46.4408 55.3684C45.7503 57.1426 45.7503 58.4693 46.4408 60.2434C47.0597 61.8336 47.5344 62.6381 48.75 63.8355C49.865 64.9339 50.8468 65.6823 52.3421 66.1447C53.4908 66.5 55.4211 66.1447 55.4211 66.1447C55.4211 66.1447 56.1613 67.7304 56.7039 68.7105C58.1314 71.2887 59.1668 72.6149 61.0658 74.8684C62.8045 76.9317 64.8203 79.1752 67.6863 81.4109C70.3082 83.4562 74.9211 85.9013 74.9211 85.9013C77.3882 86.335 78.8684 86.335 81.3355 85.9013C81.3355 85.9013 85.3335 83.2846 87.75 81.4109C90.8079 79.04 93.9687 75.9683 95.1908 74.8684C97.7566 72.5592 98.9928 70.25 99.5526 69.4803C100.112 68.7105 100.579 66.4013 100.579 66.4013C100.579 66.4013 101.142 66.3687 102.118 66.1447C103.799 65.7594 106.737 63.8355 106.737 63.8355C106.737 63.8355 108.54 61.9991 109.303 60.2434C110.062 58.4974 110.062 56.3447 109.303 54.5987C108.54 52.843 105.711 53.8289 105.711 53.8289V30.2237L115.204 23.5526L77.4868 2L41.0526 23.5526Z" fill="#776FC4"/>
<path d="M111.099 107.454H44.6447C44.6447 107.454 45.0693 102.856 45.6711 100.013C46.4693 96.2419 46.944 93.5988 49.2632 90.5197C51.3093 87.8032 52.4581 86.801 55.4211 85.1316C57.8794 83.7465 62.3487 83.0789 62.3487 83.0789C62.3487 83.0789 69.1419 90.2952 74.9211 91.2895C77.3898 91.7142 78.873 91.7487 81.3355 91.2895C86.8552 90.2602 93.1382 83.0789 93.1382 83.0789C93.1382 83.0789 97.2371 83.8842 99.5526 85.1316C102.366 86.6471 105.711 90.5197 105.711 90.5197C105.711 90.5197 108.743 95.9578 109.816 99.7566C110.644 102.689 111.099 107.454 111.099 107.454Z" fill="#776FC4"/>
<path d="M56.7039 53.8289V35.0987L77.4868 47.6711L99.5526 35.0987V53.8289M41.0526 45.3618V23.5526L77.4868 2L115.204 23.5526L105.711 30.2237V53.8289C105.711 53.8289 108.54 52.843 109.303 54.5987C110.062 56.3447 110.062 58.4974 109.303 60.2434C108.54 61.9991 106.737 63.8355 106.737 63.8355C106.737 63.8355 103.799 65.7594 102.118 66.1447C101.142 66.3687 100.579 66.4013 100.579 66.4013C100.579 66.4013 100.112 68.7105 99.5526 69.4803C98.9928 70.25 97.7566 72.5592 95.1908 74.8684C93.9687 75.9683 90.8079 79.04 87.75 81.4109C85.3335 83.2846 81.3355 85.9013 81.3355 85.9013C78.8684 86.335 77.3882 86.335 74.9211 85.9013C74.9211 85.9013 70.3082 83.4562 67.6863 81.4109C64.8203 79.1752 62.8045 76.9317 61.0658 74.8684C59.1668 72.6149 58.1314 71.2887 56.7039 68.7105C56.1613 67.7304 55.4211 66.1447 55.4211 66.1447C55.4211 66.1447 53.4908 66.5 52.3421 66.1447C50.8468 65.6823 49.865 64.9339 48.75 63.8355C47.5344 62.6381 47.0597 61.8336 46.4408 60.2434C45.7503 58.4693 45.7503 57.1426 46.4408 55.3684C47.0597 53.7783 49.2632 53.8289 49.2632 53.8289V30.2237L46.4408 27.6579V45.3618H41.0526ZM44.6447 107.454H111.099C111.099 107.454 110.644 102.689 109.816 99.7566C108.743 95.9578 105.711 90.5197 105.711 90.5197C105.711 90.5197 102.366 86.6471 99.5526 85.1316C97.2371 83.8842 93.1382 83.0789 93.1382 83.0789C93.1382 83.0789 86.8552 90.2602 81.3355 91.2895C78.873 91.7487 77.3898 91.7142 74.9211 91.2895C69.1419 90.2952 62.3487 83.0789 62.3487 83.0789C62.3487 83.0789 57.8794 83.7465 55.4211 85.1316C52.4581 86.801 51.3093 87.8032 49.2632 90.5197C46.944 93.5988 46.4693 96.2419 45.6711 100.013C45.0693 102.856 44.6447 107.454 44.6447 107.454ZM75.6908 96.1645C76.6752 95.0287 78.5551 95.0287 79.5395 96.1645C80.3926 97.1488 80.3926 98.5156 79.5395 99.5C78.5551 100.636 76.6752 100.636 75.6908 99.5C74.8377 98.5156 74.8377 97.1488 75.6908 96.1645Z" stroke="white" stroke-width="2"/>
<path d="M75.4342 66.1447C75.4342 66.1447 76.9208 67.1711 78 67.1711C79.0792 67.1711 80.5658 66.1447 80.5658 66.1447" stroke="white" stroke-width="2"/>
<path d="M78 74.1808C74.4213 74.1808 70.3026 73.0724 70.3026 73.0724C70.3026 73.0724 71.5112 75.022 73.2223 76.2129C74.8149 77.3213 76.0636 77.6908 78 77.6908C79.9364 77.6908 81.1851 77.3213 82.7777 76.2129C84.4888 75.022 85.6974 73.0724 85.6974 73.0724C85.6974 73.0724 81.5787 74.1808 78 74.1808Z" fill="white" stroke="white" stroke-width="2"/>
<path d="M93.9079 56.1382C93.9079 56.1382 91.2917 54.656 89.5204 54.6004C87.5742 54.5393 84.6711 56.1382 84.6711 56.1382" stroke="white" stroke-width="2"/>
<path d="M62.0921 56.1382C62.0921 56.1382 64.7083 54.656 66.4796 54.6004C68.4258 54.5393 71.3289 56.1382 71.3289 56.1382" stroke="white" stroke-width="2"/>
<path d="M6.01566 136.454V120.124H9.78766V133.142H17.6997V136.454H6.01566ZM30.9468 133.142V136.454H19.4698V120.124H30.7398V123.436H23.2418V126.61H29.6818V129.669H23.2418V133.142H30.9468ZM37.6773 120.124H41.0813L47.0383 136.454H43.1743L41.9093 132.797H36.8263L35.5843 136.454H31.7203L37.6773 120.124ZM41.2883 130.198L39.3793 124.425L37.4243 130.198H41.2883ZM48.6465 136.454V120.124H56.0065C56.7732 120.124 57.4785 120.285 58.1225 120.607C58.7819 120.929 59.3492 121.351 59.8245 121.872C60.2999 122.393 60.6679 122.984 60.9285 123.643C61.2045 124.302 61.3425 124.969 61.3425 125.644C61.3425 126.15 61.2812 126.641 61.1585 127.116C61.0359 127.576 60.8595 128.013 60.6295 128.427C60.3995 128.841 60.1159 129.217 59.7785 129.554C59.4565 129.876 59.0885 130.152 58.6745 130.382L62.2625 136.454H58.0075L54.8795 131.187H52.4185V136.454H48.6465ZM52.4185 127.898H55.8685C56.3132 127.898 56.6965 127.691 57.0185 127.277C57.3405 126.848 57.5015 126.303 57.5015 125.644C57.5015 124.969 57.3175 124.433 56.9495 124.034C56.5815 123.635 56.1829 123.436 55.7535 123.436H52.4185V127.898ZM67.8267 127.116V136.454H64.0547V120.124H66.9987L74.6117 129.715V120.124H78.3837V136.454H75.3477L67.8267 127.116ZM91.9489 136.454L90.8679 135.304C90.1932 135.764 89.4802 136.109 88.7289 136.339C87.9775 136.569 87.2109 136.684 86.4289 136.684C85.5395 136.684 84.7422 136.546 84.0369 136.27C83.3469 135.979 82.7642 135.603 82.2889 135.143C81.8135 134.668 81.4455 134.131 81.1849 133.533C80.9395 132.935 80.8169 132.314 80.8169 131.67C80.8169 131.179 80.8859 130.727 81.0239 130.313C81.1619 129.884 81.3459 129.493 81.5759 129.14C81.8212 128.787 82.0972 128.458 82.4039 128.151C82.7105 127.844 83.0325 127.561 83.3699 127.3C82.8179 126.625 82.4269 126.05 82.1969 125.575C81.9669 125.084 81.8519 124.548 81.8519 123.965C81.8519 123.336 81.9669 122.777 82.1969 122.286C82.4269 121.78 82.7489 121.351 83.1629 120.998C83.5769 120.645 84.0599 120.377 84.6119 120.193C85.1792 120.009 85.7925 119.917 86.4519 119.917C87.0345 119.917 87.6019 119.994 88.1539 120.147C88.7059 120.285 89.1889 120.515 89.6029 120.837C90.0322 121.144 90.3772 121.535 90.6379 122.01C90.8985 122.47 91.0289 123.022 91.0289 123.666C91.0289 124.54 90.7989 125.314 90.3389 125.989C89.8789 126.648 89.2809 127.254 88.5449 127.806L91.0979 130.52C91.2972 130.06 91.4505 129.562 91.5579 129.025C91.6805 128.473 91.7419 127.875 91.7419 127.231H94.7089C94.6935 128.366 94.5555 129.393 94.2949 130.313C94.0495 131.218 93.7045 132.038 93.2599 132.774L96.7789 136.454H91.9489ZM86.8199 133.809C87.5405 133.809 88.2229 133.602 88.8669 133.188L85.6239 129.738C85.2252 130.045 84.9109 130.359 84.6809 130.681C84.4509 130.988 84.3359 131.325 84.3359 131.693C84.3359 131.938 84.3895 132.191 84.4969 132.452C84.6042 132.697 84.7652 132.92 84.9799 133.119C85.1945 133.318 85.4552 133.487 85.7619 133.625C86.0685 133.748 86.4212 133.809 86.8199 133.809ZM85.1869 123.827C85.1869 124.072 85.2635 124.302 85.4169 124.517C85.5702 124.716 85.8462 125.015 86.2449 125.414C86.7202 125.107 87.0729 124.831 87.3029 124.586C87.5329 124.341 87.6479 124.049 87.6479 123.712C87.6479 123.375 87.5329 123.106 87.3029 122.907C87.0882 122.708 86.8045 122.608 86.4519 122.608C86.0685 122.608 85.7619 122.723 85.5319 122.953C85.3019 123.183 85.1869 123.474 85.1869 123.827ZM109.515 123.436H104.547V136.454H100.775V123.436H95.7843V120.124H109.515V123.436ZM122.834 133.142V136.454H111.357V120.124H122.627V123.436H115.129V126.61H121.569V129.669H115.129V133.142H122.834ZM134.587 124.908C134.541 124.847 134.38 124.732 134.104 124.563C133.828 124.394 133.483 124.218 133.069 124.034C132.655 123.85 132.203 123.689 131.712 123.551C131.221 123.413 130.731 123.344 130.24 123.344C128.891 123.344 128.216 123.796 128.216 124.701C128.216 124.977 128.285 125.207 128.423 125.391C128.576 125.575 128.791 125.744 129.067 125.897C129.358 126.035 129.719 126.165 130.148 126.288C130.577 126.411 131.076 126.549 131.643 126.702C132.425 126.917 133.13 127.154 133.759 127.415C134.388 127.66 134.917 127.975 135.346 128.358C135.791 128.726 136.128 129.178 136.358 129.715C136.603 130.252 136.726 130.896 136.726 131.647C136.726 132.567 136.55 133.349 136.197 133.993C135.86 134.622 135.407 135.135 134.84 135.534C134.273 135.917 133.621 136.201 132.885 136.385C132.149 136.554 131.39 136.638 130.608 136.638C130.01 136.638 129.397 136.592 128.768 136.5C128.139 136.408 127.526 136.278 126.928 136.109C126.33 135.925 125.747 135.71 125.18 135.465C124.628 135.22 124.114 134.936 123.639 134.614L125.295 131.325C125.356 131.402 125.556 131.547 125.893 131.762C126.23 131.977 126.644 132.191 127.135 132.406C127.641 132.621 128.201 132.812 128.814 132.981C129.427 133.15 130.048 133.234 130.677 133.234C132.011 133.234 132.678 132.828 132.678 132.015C132.678 131.708 132.578 131.455 132.379 131.256C132.18 131.057 131.904 130.88 131.551 130.727C131.198 130.558 130.777 130.405 130.286 130.267C129.811 130.129 129.289 129.976 128.722 129.807C127.971 129.577 127.319 129.332 126.767 129.071C126.215 128.795 125.755 128.481 125.387 128.128C125.034 127.775 124.766 127.369 124.582 126.909C124.413 126.449 124.329 125.912 124.329 125.299C124.329 124.44 124.49 123.681 124.812 123.022C125.134 122.363 125.571 121.811 126.123 121.366C126.675 120.906 127.311 120.561 128.032 120.331C128.768 120.101 129.542 119.986 130.355 119.986C130.922 119.986 131.482 120.04 132.034 120.147C132.586 120.254 133.115 120.392 133.621 120.561C134.127 120.73 134.595 120.921 135.024 121.136C135.469 121.351 135.875 121.565 136.243 121.78L134.587 124.908ZM151.27 123.436H146.302V136.454H142.53V123.436H137.539V120.124H151.27V123.436Z" fill="white"/>
</svg>
