<svg width="15" height="17" viewBox="0 0 15 17" fill="none" xmlns="http://www.w3.org/2000/svg">
<path id="Vector" d="M9.125 6.83333L8.88125 12.6667M6.11875 12.6667L5.875 6.83333M2.625 3.5L3.31593 14.1297C3.38431 15.1817 4.25751 16 5.31172 16H9.68828C10.7425 16 11.6157 15.1817 11.6841 14.1297L12.375 3.5M2.625 3.5H5.0625M2.625 3.5H1M12.375 3.5H14M12.375 3.5H9.9375M9.9375 3.5V3C9.9375 1.89543 9.04207 1 7.9375 1H7.0625C5.95793 1 5.0625 1.89543 5.0625 3V3.5M9.9375 3.5H5.0625" stroke="#636363" stroke-width="1.8" stroke-linecap="round" stroke-linejoin="round"/>
</svg>
